<svg width="58" height="58" viewBox="0 0 58 58" fill="none" xmlns="http://www.w3.org/2000/svg">
<g filter="url(#filter0_d_3_926)">
<path d="M20 22C20 20.343 18.657 19 17 19C15.343 19 14 20.343 14 22V32C14 40.284 20.716 47 29 47C37.284 47 44 40.284 44 32V25C44 23.343 42.657 22 41 22C39.343 22 38 23.343 38 25V23C38 21.343 36.657 20 35 20C33.343 20 32 21.343 32 23V21C32 19.343 30.657 18 29 18C27.343 18 26 19.343 26 21V6C26 4.343 24.657 3 23 3C21.343 3 20 4.343 20 6V31V22V22Z" stroke="white" stroke-width="4" stroke-miterlimit="10" stroke-linecap="round" stroke-linejoin="round"/>
</g>
<defs>
<filter id="filter0_d_3_926" x="0" y="0" width="58" height="58" filterUnits="userSpaceOnUse" color-interpolation-filters="sRGB">
<feFlood flood-opacity="0" result="BackgroundImageFix"/>
<feColorMatrix in="SourceAlpha" type="matrix" values="0 0 0 0 0 0 0 0 0 0 0 0 0 0 0 0 0 0 127 0" result="hardAlpha"/>
<feOffset dy="4"/>
<feGaussianBlur stdDeviation="2"/>
<feComposite in2="hardAlpha" operator="out"/>
<feColorMatrix type="matrix" values="0 0 0 0 0 0 0 0 0 0 0 0 0 0 0 0 0 0 0.25 0"/>
<feBlend mode="normal" in2="BackgroundImageFix" result="effect1_dropShadow_3_926"/>
<feBlend mode="normal" in="SourceGraphic" in2="effect1_dropShadow_3_926" result="shape"/>
</filter>
</defs>
</svg>
