<svg width="35" height="33" viewBox="0 0 35 33" fill="none" xmlns="http://www.w3.org/2000/svg">
<path d="M22.75 29.7H28C28.9283 29.7 29.8185 29.3523 30.4749 28.7335C31.1313 28.1146 31.5 27.2752 31.5 26.4V21.45C31.5 21.0124 31.6844 20.5927 32.0126 20.2833C32.3408 19.9738 32.7859 19.8 33.25 19.8C33.7141 19.8 34.1592 19.9738 34.4874 20.2833C34.8156 20.5927 35 21.0124 35 21.45V26.4C35 28.1504 34.2625 29.8292 32.9497 31.0669C31.637 32.3046 29.8565 33 28 33H7C5.14348 33 3.36301 32.3046 2.05025 31.0669C0.737498 29.8292 0 28.1504 0 26.4V21.45C0 21.0124 0.184374 20.5927 0.512563 20.2833C0.840752 19.9738 1.28587 19.8 1.75 19.8C2.21413 19.8 2.65925 19.9738 2.98744 20.2833C3.31563 20.5927 3.5 21.0124 3.5 21.45V26.4C3.5 27.2752 3.86875 28.1146 4.52513 28.7335C5.1815 29.3523 6.07174 29.7 7 29.7H12.25C12.7141 29.7 13.1592 29.8738 13.4874 30.1833C13.8156 30.4927 14 30.9124 14 31.35C14 31.7876 13.8156 32.2073 13.4874 32.5167C13.1592 32.8262 12.7141 33 12.25 33H22.75C22.2859 33 21.8408 32.8262 21.5126 32.5167C21.1844 32.2073 21 31.7876 21 31.35C21 30.9124 21.1844 30.4927 21.5126 30.1833C21.8408 29.8738 22.2859 29.7 22.75 29.7ZM3.5 11.55C3.5 11.9876 3.31563 12.4073 2.98744 12.7167C2.65925 13.0262 2.21413 13.2 1.75 13.2C1.28587 13.2 0.840752 13.0262 0.512563 12.7167C0.184374 12.4073 0 11.9876 0 11.55V6.6C0 4.84957 0.737498 3.17084 2.05025 1.9331C3.36301 0.695355 5.14348 0 7 0L12.25 0C12.7141 0 13.1592 0.173839 13.4874 0.483274C13.8156 0.792709 14 1.21239 14 1.65C14 2.08761 13.8156 2.50729 13.4874 2.81673C13.1592 3.12616 12.7141 3.3 12.25 3.3H7C6.07174 3.3 5.1815 3.64768 4.52513 4.26655C3.86875 4.88542 3.5 5.72479 3.5 6.6V11.55ZM31.5 11.55V6.6C31.5 5.72479 31.1313 4.88542 30.4749 4.26655C29.8185 3.64768 28.9283 3.3 28 3.3H22.75C22.2859 3.3 21.8408 3.12616 21.5126 2.81673C21.1844 2.50729 21 2.08761 21 1.65C21 1.21239 21.1844 0.792709 21.5126 0.483274C21.8408 0.173839 22.2859 0 22.75 0L28 0C29.8565 0 31.637 0.695355 32.9497 1.9331C34.2625 3.17084 35 4.84957 35 6.6V11.55C35 11.9876 34.8156 12.4073 34.4874 12.7167C34.1592 13.0262 33.7141 13.2 33.25 13.2C32.7859 13.2 32.3408 13.0262 32.0126 12.7167C31.6844 12.4073 31.5 11.9876 31.5 11.55Z" fill="#FFFBFB"/>
</svg>
