<svg width="50" height="50" viewBox="0 0 50 50" fill="none" xmlns="http://www.w3.org/2000/svg">
<path d="M16.005 15.3287C13.6374 14.2063 12 11.7944 12 9C12 5.13401 15.134 2 19 2C22.866 2 26 5.13401 26 9C26 11.7944 24.3626 14.2063 21.995 15.3287" stroke="#105BFB" stroke-width="2" stroke-miterlimit="10" stroke-linecap="round" stroke-linejoin="round"/>
<path d="M16 25C16 23.343 14.657 22 13 22C11.343 22 10 23.343 10 25V32C10 40.284 16.716 47 25 47C33.284 47 40 40.284 40 32V25C40 23.343 38.657 22 37 22C35.343 22 34 23.343 34 25V23C34 21.343 32.657 20 31 20C29.343 20 28 21.343 28 23V21C28 19.343 26.657 18 25 18C23.343 18 22 19.343 22 21V9C22 7.343 20.657 6 19 6C17.343 6 16 7.343 16 9V31V25Z" stroke="white" stroke-width="4" stroke-miterlimit="10" stroke-linecap="round" stroke-linejoin="round"/>
</svg>
